<svg width="22" height="20" viewBox="0 0 22 20" fill="none" xmlns="http://www.w3.org/2000/svg">
<path d="M7.99999 20H8.99999V18H8.01099C7.70299 17.994 4.99999 17.827 4.99999 14C4.99999 12.007 4.33499 10.754 3.49799 10C4.33499 9.246 4.99999 7.993 4.99999 6C4.99999 2.173 7.70299 2.006 7.99999 2H8.99999V0H7.99799C6.26899 0.004 2.99999 1.264 2.99999 6C2.99999 8.8 1.32199 8.99 0.985992 9L0.999992 11C1.08199 11 2.99999 11.034 2.99999 14C2.99999 18.736 6.26899 19.996 7.99999 20ZM21 9C20.918 9 19 8.966 19 6C19 1.264 15.731 0.004 14 0H13V2H13.989C14.297 2.006 17 2.173 17 6C17 7.993 17.665 9.246 18.502 10C17.665 10.754 17 12.007 17 14C17 17.827 14.297 17.994 14 18H13V20H14.002C15.731 19.996 19 18.736 19 14C19 11.2 20.678 11.01 21.014 11L21 9Z" fill="white"/>
</svg>
