<svg width="679" height="676" viewBox="0 0 679 676" fill="none" xmlns="http://www.w3.org/2000/svg">
<path d="M510.499 105.767H206.647V316.409H510.499V105.767Z" fill="#E6E6E6"/>
<path d="M510.499 316.409H206.647V523.238H510.499V316.409Z" fill="#A5A5A5"/>
<g opacity="0.51">
<path d="M480.202 349.668H239.823V447.891H480.202V349.668Z" fill="white"/>
</g>
<path d="M406.151 460.059H310.642V505.607H406.151V460.059Z" fill="white"/>
<path d="M490.36 125.344H226.474V291.329H490.36V125.344Z" fill="#24285B"/>
<path d="M388.361 240.629H303.594V250.066H388.361V240.629Z" fill="#68E1FD"/>
<path d="M403.679 214.333H327.903V223.77H403.679V214.333Z" fill="#FFD200"/>
<path d="M428.911 263.464H327.903V272.901H428.911V263.464Z" fill="#68E1FD"/>
<path d="M310.126 263.464H272.143V272.901H310.126V263.464Z" fill="white"/>
<path d="M285.818 240.629H247.835V250.066H285.818V240.629Z" fill="white"/>
<path d="M243.747 145.719C246.215 145.719 248.215 143.727 248.215 141.27C248.215 138.814 246.215 136.822 243.747 136.822C241.28 136.822 239.28 138.814 239.28 141.27C239.28 143.727 241.28 145.719 243.747 145.719Z" fill="white"/>
<path d="M257.042 145.719C259.51 145.719 261.51 143.727 261.51 141.27C261.51 138.814 259.51 136.822 257.042 136.822C254.575 136.822 252.574 138.814 252.574 141.27C252.574 143.727 254.575 145.719 257.042 145.719Z" fill="#68E1FD"/>
<path d="M269.577 145.719C272.044 145.719 274.044 143.727 274.044 141.27C274.044 138.814 272.044 136.822 269.577 136.822C267.109 136.822 265.109 138.814 265.109 141.27C265.109 143.727 267.109 145.719 269.577 145.719Z" fill="#FFD200"/>
<path d="M285.818 168.811H247.835V178.248H285.818V168.811Z" fill="white"/>
<path d="M310.126 192.43H272.143V201.867H310.126V192.43Z" fill="white"/>
<path d="M403.679 192.43H327.903V201.867H403.679V192.43Z" fill="#FFD200"/>
<path d="M310.126 214.333H272.143V223.77H310.126V214.333Z" fill="white"/>
<path d="M379.262 168.811H301.001V178.248H379.262V168.811Z" fill="#68E1FD"/>
<path d="M451.209 168.811H395.64V178.248H451.209V168.811Z" fill="#68E1FD"/>
<path d="M185.394 154.682H21.3478V427.976H185.394V154.682Z" fill="#24285B"/>
<path d="M132.799 337.811H131.441V239.007H71.9197V237.655H132.799V337.811Z" fill="white"/>
<path d="M125.588 178.518H46.0226V191.186H125.588V178.518Z" fill="#FFD200"/>
<path d="M92.8872 225.378H50.9522V251.296H92.8872V225.378Z" fill="#68E1FD"/>
<path d="M131.441 337.135H71.9197V338.487H131.441V337.135Z" fill="white"/>
<path d="M153.087 276.335H111.152V302.253H153.087V276.335Z" fill="#68E1FD"/>
<path d="M92.8872 324.845H50.9522V350.763H92.8872V324.845Z" fill="#68E1FD"/>
<path d="M152.408 324.845H110.473V350.763H152.408V324.845Z" fill="#68E1FD"/>
<g opacity="0.1">
<path d="M152.408 385.442H50.9522V403.856H152.408V385.442Z" fill="white"/>
</g>
<path d="M660.939 187.279H534.196V260.26H660.939V187.279Z" fill="#E6E6E6"/>
<path d="M555.843 217.821C559.908 217.821 563.203 214.54 563.203 210.493C563.203 206.446 559.908 203.165 555.843 203.165C551.778 203.165 548.483 206.446 548.483 210.493C548.483 214.54 551.778 217.821 555.843 217.821Z" fill="#24285B"/>
<path d="M555.843 243.346C559.908 243.346 563.203 240.066 563.203 236.019C563.203 231.972 559.908 228.691 555.843 228.691C551.778 228.691 548.483 231.972 548.483 236.019C548.483 240.066 551.778 243.346 555.843 243.346Z" fill="#68E1FD"/>
<path d="M639.292 205.49H572.872V214.414H639.292V205.49Z" fill="white"/>
<path d="M639.292 231.287H572.872V240.21H639.292V231.287Z" fill="white"/>
<path d="M606.605 56.4866H461.489V155.804H606.605V56.4866Z" fill="#FFD200"/>
<path d="M514.546 125.655C513.813 125.655 513.08 125.425 512.468 124.938L490.713 107.822C489.912 107.187 489.437 106.227 489.437 105.213C489.437 104.199 489.898 103.225 490.686 102.59L512.441 85.1625C513.881 83.9998 515.999 84.2296 517.167 85.6763C518.335 87.1094 518.104 89.2185 516.651 90.3812L498.182 105.186L516.638 119.706C518.091 120.855 518.335 122.951 517.194 124.398C516.529 125.236 515.551 125.668 514.56 125.668L514.546 125.655Z" fill="white"/>
<path d="M553.928 125.655C552.937 125.655 551.959 125.222 551.294 124.384C550.139 122.937 550.384 120.828 551.85 119.693L570.306 105.172L551.837 90.3677C550.397 89.205 550.167 87.1094 551.321 85.6627C552.489 84.2296 554.594 83.9998 556.047 85.149L577.802 102.576C578.603 103.212 579.065 104.185 579.051 105.199C579.051 106.213 578.576 107.173 577.775 107.808L556.019 124.925C555.408 125.412 554.675 125.641 553.942 125.641L553.928 125.655Z" fill="white"/>
<path d="M525.111 125.655C524.65 125.655 524.174 125.56 523.713 125.357C522.029 124.587 521.282 122.613 522.056 120.923L537.904 86.3793C538.678 84.7028 540.661 83.9592 542.358 84.7298C544.042 85.5005 544.789 87.4744 544.015 89.1644L528.167 123.708C527.597 124.938 526.388 125.668 525.111 125.668V125.655Z" fill="white"/>
</svg>
