<svg width="41" height="43" viewBox="0 0 41 43" fill="none" xmlns="http://www.w3.org/2000/svg">
<path d="M20 12C14.486 12 10 16.486 10 22C10 27.514 14.486 32 20 32C25.514 32 30 27.514 30 22C30 16.486 25.514 12 20 12ZM12 22C12 21.101 12.156 20.238 12.431 19.431L14 21L16 23V25L18 27L19 28V29.931C15.061 29.436 12 26.072 12 22ZM26.33 26.873C25.677 26.347 24.687 26 24 26V25C24 24.4696 23.7893 23.9609 23.4142 23.5858C23.0391 23.2107 22.5304 23 22 23H18V20C18.5304 20 19.0391 19.7893 19.4142 19.4142C19.7893 19.0391 20 18.5304 20 18V17H21C21.5304 17 22.0391 16.7893 22.4142 16.4142C22.7893 16.0391 23 15.5304 23 15V14.589C25.928 15.778 28 18.65 28 22C27.9998 23.7647 27.4123 25.4791 26.33 26.873Z" fill="white"/>
<rect width="41" height="43" rx="20" fill="#D9D9D9" fill-opacity="0.2"/>
</svg>
