<svg width="41" height="43" viewBox="0 0 41 43" fill="none" xmlns="http://www.w3.org/2000/svg">
<path d="M11.553 28.895L15.553 30.895C15.6918 30.9643 15.8448 31.0003 16 31.0003C16.1552 31.0003 16.3082 30.9643 16.447 30.895L20 29.118L23.553 30.894C23.6915 30.9643 23.8446 31.001 23.9999 31.0011C24.1552 31.0013 24.3084 30.965 24.447 30.895L28.447 28.895C28.786 28.725 29 28.379 29 28V23C29 22.621 28.786 22.275 28.447 22.105L25 20.382V16C25 15.621 24.786 15.275 24.447 15.105L20.447 13.105C20.3081 13.0355 20.1549 12.9993 19.9995 12.9993C19.8441 12.9993 19.6909 13.0355 19.552 13.105L15.552 15.105C15.214 15.275 15 15.621 15 16V20.382L11.553 22.106C11.3868 22.1888 11.2469 22.3163 11.1493 22.4743C11.0516 22.6322 10.9999 22.8143 11 23V28C11 28.379 11.214 28.725 11.553 28.895ZM16 22.118L18.264 23.25L15.351 24.707L13.087 23.575L16 22.118ZM20 19.618L23 18.118V20.382L20 21.882V19.618ZM26.264 23.25L23.382 24.691L21.118 23.559L24 22.118L26.264 23.25ZM16 28.882L15.938 28.851V26.65L19 25.118V27.382L16 28.882ZM24 28.882V26.618L27 25.118V27.382L24 28.882ZM20 15.118L22.264 16.25L19.382 17.691L17.118 16.559L20 15.118Z" fill="white"/>
<rect width="41" height="43" rx="20" fill="#D9D9D9" fill-opacity="0.2"/>
</svg>
