<svg width="24" height="24" viewBox="0 0 24 24" fill="none" xmlns="http://www.w3.org/2000/svg">
<path d="M8.99999 22H9.99999V20H9.01099C8.70299 19.994 5.99999 19.827 5.99999 16C5.99999 14.007 5.33499 12.754 4.49799 12C5.33499 11.246 5.99999 9.993 5.99999 8C5.99999 4.173 8.70299 4.006 8.99999 4H9.99999V2H8.99799C7.26899 2.004 3.99999 3.264 3.99999 8C3.99999 10.8 2.32199 10.99 1.98599 11L1.99999 13C2.08199 13 3.99999 13.034 3.99999 16C3.99999 20.736 7.26899 21.996 8.99999 22ZM22 11C21.918 11 20 10.966 20 8C20 3.264 16.731 2.004 15 2H14V4H14.989C15.297 4.006 18 4.173 18 8C18 9.993 18.665 11.246 19.502 12C18.665 12.754 18 14.007 18 16C18 19.827 15.297 19.994 15 20H14V22H15.002C16.731 21.996 20 20.736 20 16C20 13.2 21.678 13.01 22.014 13L22 11Z" fill="white"/>
</svg>
