<svg width="41" height="43" viewBox="0 0 41 43" fill="none" xmlns="http://www.w3.org/2000/svg">
<path d="M25 12H21V16.059C22.4313 16.2163 23.8035 16.7168 25 17.518V12ZM19 12H15V17.518C16.1965 16.7168 17.5687 16.2163 19 16.059V12ZM20 32C21.8565 32 23.637 31.2625 24.9497 29.9497C26.2625 28.637 27 26.8565 27 25C27 23.1435 26.2625 21.363 24.9497 20.0503C23.637 18.7375 21.8565 18 20 18C18.1435 18 16.363 18.7375 15.0503 20.0503C13.7375 21.363 13 23.1435 13 25C13 26.8565 13.7375 28.637 15.0503 29.9497C16.363 31.2625 18.1435 32 20 32ZM18.775 23.481L20 21L21.225 23.481L23.963 23.878L21.982 25.81L22.45 28.537L20 27.25L17.551 28.537L18.019 25.81L16.038 23.878L18.775 23.481Z" fill="white"/>
<rect width="41" height="43" rx="20" fill="#D9D9D9" fill-opacity="0.2"/>
</svg>
