<svg width="402" height="267" viewBox="0 0 402 267" fill="none" xmlns="http://www.w3.org/2000/svg">
<g clip-path="url(#clip0_26_34)">
<path d="M61.3235 228.14C52.3967 236.18 49.8668 250.327 49.8668 250.327C49.8668 250.327 61.81 251.437 70.7368 243.397C79.6636 235.357 82.1935 221.211 82.1935 221.211C82.1935 221.211 70.2503 220.1 61.3235 228.14Z" fill="#F1F1F1"/>
<path d="M65.042 231.915C60.7517 244.329 50.0068 250.726 50.0068 250.726C50.0068 250.726 46.2178 236.996 50.5081 224.583C54.7984 212.169 65.5433 205.772 65.5433 205.772C65.5433 205.772 69.3323 219.502 65.042 231.915Z" fill="#F1F1F1"/>
<path d="M321.874 196.029C320.925 188.31 320.675 180.488 321.126 172.703L321.874 159.819C317.756 169.719 318.686 182.749 321.874 196.029Z" fill="#CACACA"/>
<path d="M325.085 198.184C324.628 193.578 324.508 188.932 324.725 184.3L325.085 176.631C323.103 182.524 323.551 190.279 325.085 198.184Z" fill="#CACACA"/>
<path d="M339.357 207.669V211.979C339.356 212.322 339.243 212.65 339.042 212.892C338.842 213.134 338.571 213.271 338.287 213.273H336.503C336.456 213.272 336.41 213.283 336.366 213.305C336.323 213.327 336.284 213.358 336.251 213.398C336.217 213.438 336.191 213.486 336.173 213.538C336.155 213.591 336.146 213.647 336.146 213.704V249.051C336.145 249.393 336.032 249.721 335.831 249.963C335.631 250.206 335.36 250.342 335.076 250.344H313.313C313.029 250.344 312.757 250.208 312.556 249.965C312.355 249.723 312.243 249.394 312.242 249.051V213.704C312.242 213.589 312.204 213.48 312.138 213.399C312.071 213.318 311.98 213.273 311.886 213.273H309.745C309.461 213.272 309.189 213.136 308.988 212.893C308.788 212.651 308.675 212.322 308.675 211.979V207.669C308.674 207.499 308.702 207.331 308.756 207.174C308.809 207.017 308.888 206.874 308.988 206.754C309.087 206.634 309.205 206.538 309.335 206.473C309.465 206.409 309.604 206.375 309.745 206.375H338.287C338.571 206.377 338.842 206.513 339.043 206.755C339.244 206.998 339.357 207.326 339.357 207.669Z" fill="#F2F2F2"/>
<path d="M336.178 214.178H312.274V215.471H336.178V214.178Z" fill="#E6E6E6"/>
<path d="M336.146 233.207C328.148 237.206 320.061 237.25 311.886 233.207V224.096C319.756 220.902 328.276 220.902 336.146 224.096V233.207Z" fill="#E6E6E6"/>
<path d="M202.161 93.9069C220.017 93.9069 234.493 76.4175 234.493 54.8432C234.493 33.2689 220.017 15.7794 202.161 15.7794C184.305 15.7794 169.829 33.2689 169.829 54.8432C169.829 76.4175 184.305 93.9069 202.161 93.9069Z" fill="#FEB8B8"/>
<path d="M232.359 21.1422C227.525 11.6583 219.959 4.67007 211.116 1.52257L207.147 5.0222V0.47803C205.023 0.0853182 202.874 -0.0659657 200.727 0.026168L197.302 3.76981V0.337191C192.232 1.09844 187.347 3.12071 182.956 6.27648C178.565 9.43225 174.763 13.6531 171.789 18.6728C164.352 31.626 163.097 49.6468 170.411 62.704C172.419 55.2483 174.856 48.2528 176.864 40.7979C178.443 41.0578 180.042 41.0672 181.622 40.8258L184.065 33.9388L184.747 40.5344C192.319 39.7376 203.55 37.9874 210.728 36.3841L210.03 31.324L214.206 35.5286C216.405 34.9171 217.711 34.362 217.603 33.9381C222.942 44.3368 229.476 50.9783 234.814 61.377C236.841 46.7143 239.175 34.5224 232.359 21.1422Z" fill="#2F2E41"/>
<path d="M271.697 155.297C270.586 147.215 269.439 138.979 266.33 131.699C264.287 126.93 261.044 122.386 256.672 121.443C255.811 121.35 254.964 121.114 254.157 120.74C252.876 119.994 235.661 108.121 232.925 106.053C230.576 104.278 226.867 100.99 224.998 100.99C223.116 100.94 215.903 102.969 187.748 100.31C187.748 100.31 180.014 103.993 174.029 108.459C173.938 108.387 144.807 127.288 143.713 127.238C141.64 127.133 139.713 128.736 138.525 130.755C137.337 132.774 136.78 135.274 136.197 137.69C142.559 154.81 148.381 171.952 154.744 189.072C155.042 189.717 155.201 190.443 155.205 191.181C155.077 191.947 154.806 192.669 154.413 193.29C151.292 199.346 151.392 206.964 151.733 214.082C152.074 221.2 152.496 228.719 149.863 235.099C149.146 236.851 148.215 238.454 147.534 240.206C145.939 244.173 145.363 256.862 146.294 261.125L263.02 265.165C260.51 256.83 271.697 155.297 271.697 155.297Z" fill="#6C63FF"/>
<path d="M126.107 189.832C125.874 191.867 125.851 193.93 126.037 195.972L127.71 225.001C127.867 227.737 128.022 230.466 128.234 233.195C128.636 238.492 129.235 243.746 129.98 248.993C129.996 249.738 130.257 250.445 130.705 250.958C131.152 251.47 131.75 251.748 132.366 251.729C139.731 253.612 147.339 253.537 154.855 253.024C166.324 252.25 195.666 250.787 197.459 247.973C199.251 245.16 198.207 240.609 195.869 238.334C193.532 236.059 154.811 230.512 154.811 230.512C155.189 226.89 156.331 223.478 157.413 220.039C159.358 213.939 161.174 207.638 161.209 201.104C161.244 194.569 159.207 187.699 154.776 183.955C151.132 180.882 146.439 180.312 141.998 180.438C138.767 180.55 133.184 179.615 130.233 181.142C127.897 182.384 126.543 187.068 126.107 189.832Z" fill="#FBBEBE"/>
<path d="M135.86 138.211C135.293 138.929 134.853 139.779 134.568 140.709C129.862 153.522 127.083 167.246 126.359 181.237C126.372 181.919 126.242 182.595 125.981 183.2C125.724 183.602 125.437 183.977 125.125 184.318C124.853 184.708 124.647 185.159 124.519 185.644C124.391 186.13 124.344 186.642 124.38 187.15C124.415 187.658 124.533 188.153 124.727 188.606C124.921 189.059 125.187 189.461 125.51 189.79C125.563 189.844 125.617 189.895 125.673 189.945C126.633 187.761 128.932 187.047 130.976 186.858C140.762 185.922 150.321 191.423 160.137 191.008C159.444 188.117 158.448 185.339 157.883 182.413C155.386 169.421 161.615 155.277 157.796 142.763C157.033 140.259 155.759 137.797 153.75 136.7C152.919 136.295 152.048 136.016 151.16 135.872C148.68 135.33 143.742 133.016 141.344 133.944C140.459 134.289 140.11 135.295 139.377 135.902C138.262 136.763 136.784 137.079 135.86 138.211Z" fill="#6C63FF"/>
<path d="M271.767 181.142C268.816 179.615 263.233 180.55 260.002 180.438C255.561 180.312 250.868 180.882 247.224 183.955C242.793 187.699 240.756 194.569 240.791 201.104C240.825 207.638 242.642 213.939 244.587 220.039C245.669 223.478 246.811 226.89 247.189 230.512C247.189 230.512 208.468 236.059 206.131 238.334C203.793 240.609 202.749 245.16 204.541 247.973C206.334 250.787 262.269 253.612 269.634 251.729C270.25 251.748 270.848 251.47 271.295 250.957C271.743 250.445 272.004 249.738 272.02 248.993C272.765 243.746 273.364 238.492 273.766 233.195C273.978 230.466 274.133 227.737 274.29 225.001L275.963 195.972C276.149 193.93 276.126 191.867 275.893 189.832C275.457 187.069 274.103 182.384 271.767 181.142Z" fill="#FBBEBE"/>
<path d="M262.623 135.902C261.89 135.295 261.541 134.289 260.656 133.944C258.258 133.016 253.32 135.33 250.84 135.872C249.952 136.016 249.081 136.295 248.25 136.7C246.241 137.797 244.967 140.259 244.204 142.763C240.385 155.277 246.614 169.421 244.117 182.413C243.552 185.339 242.556 188.117 241.863 191.008C251.679 191.423 261.238 185.922 271.024 186.858C273.068 187.047 275.367 187.761 276.327 189.945C276.383 189.896 276.437 189.844 276.49 189.79C276.813 189.461 277.079 189.059 277.273 188.606C277.467 188.153 277.585 187.658 277.62 187.15C277.656 186.642 277.609 186.13 277.481 185.644C277.353 185.159 277.147 184.708 276.875 184.318C276.563 183.977 276.276 183.602 276.019 183.2C275.758 182.595 275.628 181.919 275.641 181.237C274.917 167.246 272.138 153.522 267.432 140.709C267.147 139.779 266.707 138.929 266.14 138.211C265.216 137.079 263.738 136.762 262.623 135.902Z" fill="#6C63FF"/>
<path d="M192.585 253.115C197.405 253.115 201.312 248.395 201.312 242.572C201.312 236.749 197.405 232.029 192.585 232.029C187.766 232.029 183.859 236.749 183.859 242.572C183.859 248.395 187.766 253.115 192.585 253.115Z" fill="#FBBEBE"/>
<path d="M211.908 253.115C216.727 253.115 220.634 248.395 220.634 242.572C220.634 236.749 216.727 232.029 211.908 232.029C207.089 232.029 203.182 236.749 203.182 242.572C203.182 248.395 207.089 253.115 211.908 253.115Z" fill="#FBBEBE"/>
<path d="M265.774 266.33H145.887C144.487 266.328 143.145 265.656 142.155 264.46C141.165 263.264 140.609 261.643 140.607 259.952V172.076C140.609 170.384 141.165 168.763 142.155 167.567C143.145 166.372 144.487 165.699 145.887 165.697H265.774C267.173 165.699 268.515 166.372 269.505 167.567C270.495 168.763 271.052 170.384 271.053 172.076V259.952C271.052 261.643 270.495 263.264 269.505 264.46C268.515 265.656 267.173 266.328 265.774 266.33Z" fill="#3F3D56"/>
<path d="M205.539 220.234C207.468 220.234 209.032 218.345 209.032 216.014C209.032 213.683 207.468 211.793 205.539 211.793C203.61 211.793 202.046 213.683 202.046 216.014C202.046 218.345 203.61 220.234 205.539 220.234Z" fill="white"/>
<path d="M402 248.605H0V263.531H23.7778V267H378.231V263.531H402V248.605Z" fill="#F1F1F1"/>
<path d="M172.43 69.403C167.235 69.403 163.023 63.9013 163.023 57.1147V50.9704C163.023 44.1838 167.235 38.6821 172.43 38.6821L172.43 69.403Z" fill="#6C63FF"/>
<path d="M232.469 38.6821C237.664 38.6821 241.875 44.1838 241.875 50.9704V57.1146C241.875 63.9013 237.664 69.403 232.469 69.403V38.6821Z" fill="#6C63FF"/>
<path d="M237.398 51.936H235.905C235.905 27.2095 220.506 7.09288 201.579 7.09288C182.651 7.09288 167.252 27.2095 167.252 51.936H165.759C165.759 26.1343 181.828 5.14319 201.579 5.14319C221.329 5.1432 237.398 26.1343 237.398 51.936Z" fill="#6C63FF"/>
</g>
<defs>
<clipPath id="clip0_26_34">
<rect width="402" height="267" fill="white"/>
</clipPath>
</defs>
</svg>
